<?xml version="1.0" standalone="no"?>
<!DOCTYPE svg PUBLIC "-//W3C//DTD SVG 20010904//EN"
 "http://www.w3.org/TR/2001/REC-SVG-20010904/DTD/svg10.dtd">
<svg version="1.0" xmlns="http://www.w3.org/2000/svg"
 width="500.000000pt" height="500.000000pt" viewBox="0 0 500.000000 500.000000"
 preserveAspectRatio="xMidYMid meet">

<g transform="translate(0.000000,500.000000) scale(0.100000,-0.100000)"
fill="#000000" stroke="none">
<path d="M2535 4919 c-114 -14 -235 -110 -275 -217 -30 -77 -25 -203 11 -277
32 -68 102 -135 171 -165 l58 -25 0 -447 0 -447 -57 -11 c-99 -19 -155 -38
-241 -80 -103 -49 -179 -107 -266 -201 l-66 -71 -88 50 c-48 28 -141 82 -207
120 l-120 70 1 44 c4 106 -25 206 -80 281 -30 41 -113 93 -181 112 -156 46
-330 -37 -406 -193 -19 -39 -23 -64 -24 -142 0 -115 18 -163 95 -244 127 -134
314 -140 490 -15 12 8 61 -16 225 -112 l210 -122 -27 -81 c-64 -193 -64 -369
1 -563 l27 -82 -484 -280 -485 -280 -36 29 c-65 53 -127 74 -217 74 -72 0 -89
-4 -147 -32 -126 -62 -197 -175 -197 -312 0 -214 162 -364 377 -348 123 9 228
83 281 196 23 48 27 72 28 152 l2 95 473 273 c261 151 479 276 484 278 6 2 33
-23 60 -57 119 -145 332 -262 538 -294 l37 -6 0 -393 0 -392 -57 -24 c-115
-48 -193 -160 -201 -290 -5 -89 6 -136 50 -210 124 -206 429 -218 573 -23 70
96 87 224 44 337 -28 77 -117 167 -188 193 l-51 18 0 392 0 392 38 6 c66 10
214 56 266 82 111 56 238 159 304 247 l22 28 393 -227 394 -227 -1 -92 c-1
-84 2 -97 32 -158 45 -92 113 -152 204 -179 85 -26 179 -23 250 9 66 29 143
104 175 171 23 48 27 69 28 146 0 82 -3 96 -33 157 -97 197 -337 254 -520 124
-43 -30 -43 -30 -75 -13 -18 10 -194 111 -392 226 -287 166 -360 212 -358 227
1 10 14 57 29 104 26 78 28 98 28 245 0 166 0 166 -60 346 -4 13 36 41 176
122 l182 105 44 -33 c169 -129 423 -70 519 122 27 52 30 68 30 153 0 82 -4
103 -26 151 -34 72 -96 134 -168 168 -48 22 -70 26 -146 26 -82 0 -97 -3 -157
-33 -73 -36 -124 -87 -160 -161 -19 -38 -23 -64 -24 -145 l-2 -100 -177 -103
c-98 -57 -181 -102 -185 -101 -4 2 -25 24 -47 50 -142 165 -321 264 -545 302
l-38 7 0 447 0 447 49 18 c141 50 239 224 212 374 -37 196 -200 317 -396 292z
m142 -194 c112 -66 111 -235 -3 -301 -70 -41 -159 -28 -216 32 -138 148 43
371 219 269z m-1502 -1244 c72 -33 105 -86 105 -167 0 -70 -35 -121 -107 -158
-40 -20 -83 -20 -130 -1 -50 21 -72 42 -94 90 -24 53 -24 99 2 152 42 87 139
123 224 84z m2892 -32 c38 -14 83 -57 99 -96 65 -151 -104 -301 -248 -221
-102 58 -118 214 -29 286 48 39 122 52 178 31z m-1275 -312 c350 -113 558
-465 483 -822 -18 -87 -90 -234 -147 -300 -87 -103 -199 -178 -335 -226 -84
-30 -236 -36 -343 -15 -251 49 -455 233 -538 484 -22 66 -25 95 -26 207 0 115
3 139 27 210 82 246 276 422 532 481 90 21 251 12 347 -19z m1732 -1589 c119
-78 109 -251 -18 -309 -181 -82 -338 153 -193 289 58 54 146 62 211 20z
m-3868 -103 c110 -65 110 -235 0 -300 -121 -71 -266 15 -266 156 1 132 148
213 266 144z m2032 -834 c43 -30 72 -89 72 -147 0 -153 -182 -231 -294 -126
-91 86 -66 235 49 288 45 21 134 13 173 -15z"/>
</g>
</svg>
